<svg width="241" height="70" fill="none" xmlns="http://www.w3.org/2000/svg"><path d="M71.432 38.114c-2.3 9.107-11.648 14.65-20.877 12.379-9.226-2.27-14.843-11.495-12.541-20.602 2.3-9.108 11.647-14.65 20.874-12.38 9.23 2.27 14.845 11.496 12.544 20.603z" fill="#F7931A"/><path d="M62.318 31.58c.343-2.262-1.402-3.478-3.788-4.289l.774-3.064-1.89-.465-.754 2.983a80.55 80.55 0 00-1.514-.351l.759-3.003-1.89-.465-.774 3.063a64.065 64.065 0 01-1.207-.28l.002-.01-2.606-.642-.503 1.992s1.402.317 1.373.337c.765.189.903.689.88 1.085l-.882 3.49c.053.014.122.033.197.063l-.2-.05-1.236 4.891c-.093.23-.33.574-.866.443.019.027-1.374-.338-1.374-.338l-.938 2.135 2.46.605c.457.113.905.231 1.347.343l-.782 3.1 1.888.464.774-3.066a73.16 73.16 0 001.507.386l-.772 3.052 1.89.464.782-3.093c3.223.602 5.647.359 6.667-2.518.822-2.316-.041-3.652-1.737-4.523 1.235-.281 2.165-1.083 2.413-2.739zM58 37.556c-.584 2.316-4.536 1.064-5.817.75L53.22 34.2c1.28.316 5.39.94 4.779 3.356zm.584-6.01c-.532 2.108-3.822 1.037-4.889.775l.941-3.724c1.067.262 4.503.752 3.948 2.95z" fill="#fff"/><path d="M87.98 27.287c1.397 0 2.604.247 3.618.733a7.27 7.27 0 012.535 1.979c.665.834 1.16 1.809 1.48 2.926.318 1.12.477 2.325.477 3.614 0 1.98-.368 3.852-1.11 5.615-.742 1.767-1.75 3.299-3.03 4.606-1.28 1.305-2.793 2.334-4.536 3.094-1.74.76-3.632 1.141-5.664 1.141-.263 0-.725-.007-1.377-.02a20.372 20.372 0 01-2.242-.192 26.6 26.6 0 01-2.683-.52 13.557 13.557 0 01-2.682-.945l7.543-31.278 6.756-1.033-2.7 11.1c.577-.258 1.16-.457 1.741-.602a7.838 7.838 0 011.874-.218zm-5.667 18.42a5.982 5.982 0 002.877-.733 7.55 7.55 0 002.336-1.958 9.839 9.839 0 001.546-2.776 9.348 9.348 0 00.568-3.23c0-1.376-.233-2.45-.698-3.225-.464-.773-1.324-1.162-2.573-1.162-.409 0-.936.077-1.59.214a3.987 3.987 0 00-1.768.906L80.135 45.53c.174.03.327.06.458.086.128.03.27.05.41.065.15.016.32.025.527.025h.783zm20.784 4.689h-6.453l5.449-22.629h6.497l-5.493 22.63zm3.14-25.386a4.038 4.038 0 01-2.442-.795c-.731-.527-1.093-1.338-1.093-2.431 0-.602.124-1.166.37-1.698a4.54 4.54 0 01.983-1.378 4.817 4.817 0 011.416-.926 4.37 4.37 0 011.724-.342c.901 0 1.713.264 2.44.794.725.533 1.089 1.345 1.089 2.432a3.97 3.97 0 01-.371 1.701 4.478 4.478 0 01-.979 1.378 4.758 4.758 0 01-1.416.923 4.302 4.302 0 01-1.721.342zm8.008-2.88l6.759-1.034-1.659 6.67h7.238l-1.307 5.248h-7.195l-1.916 7.915a8.818 8.818 0 00-.305 1.849c-.032.575.042 1.07.216 1.485.174.417.485.739.938.966.45.231 1.094.348 1.939.348a10.5 10.5 0 002.03-.195 14.512 14.512 0 001.981-.538l.482 4.907c-.872.316-1.817.587-2.834.815-1.019.232-2.226.344-3.62.344-2.005 0-3.559-.294-4.666-.88-1.106-.588-1.888-1.393-2.355-2.412-.462-1.015-.668-2.186-.61-3.504a22.29 22.29 0 01.61-4.174l4.274-17.81zm12.054 19.23c0-1.95.32-3.787.959-5.508a13.508 13.508 0 012.749-4.52c1.188-1.287 2.636-2.306 4.339-3.054 1.696-.744 3.595-1.119 5.687-1.119 1.31 0 2.48.123 3.509.367 1.034.247 1.969.567 2.815.967l-2.226 4.994a20.992 20.992 0 00-1.809-.624c-.624-.19-1.386-.28-2.288-.28-2.154 0-3.857.732-5.124 2.192-1.262 1.462-1.898 3.429-1.898 5.897 0 1.462.32 2.645.961 3.55.639.904 1.818 1.354 3.531 1.354.845 0 1.661-.087 2.442-.257a12.139 12.139 0 002.094-.645l.482 5.119c-.817.312-1.717.594-2.704.841-.989.239-2.167.363-3.533.363-1.803 0-3.329-.26-4.578-.773-1.248-.52-2.28-1.212-3.093-2.087a7.832 7.832 0 01-1.767-3.079 12.47 12.47 0 01-.548-3.698zm28.666 9.637c-1.54 0-2.878-.232-4.013-.69-1.131-.459-2.068-1.102-2.81-1.936-.742-.83-1.298-1.813-1.678-2.947-.381-1.132-.564-2.386-.564-3.76 0-1.724.281-3.448.848-5.166a14.558 14.558 0 012.509-4.646c1.099-1.377 2.455-2.503 4.052-3.381 1.595-.873 3.43-1.312 5.49-1.312 1.512 0 2.843.233 3.994.691 1.145.457 2.088 1.106 2.833 1.936a8.37 8.37 0 011.675 2.948c.38 1.13.567 2.388.567 3.763 0 1.719-.277 3.442-.826 5.166a14.827 14.827 0 01-2.442 4.645c-1.074 1.375-2.418 2.501-4.032 3.376-1.612.874-3.481 1.313-5.603 1.313zm3.225-18.414c-.956 0-1.802.274-2.526.815a7.055 7.055 0 00-1.829 2.067 10.134 10.134 0 00-1.116 2.732c-.247.99-.368 1.927-.368 2.817 0 1.436.235 2.554.696 3.36.468.8 1.308 1.203 2.53 1.203.96 0 1.801-.273 2.529-.82a7.09 7.09 0 001.83-2.064c.494-.83.866-1.742 1.115-2.732.244-.988.368-1.93.368-2.818 0-1.432-.233-2.553-.699-3.357-.465-.8-1.309-1.203-2.53-1.203zm16.71 17.813h-6.459l5.45-22.629h6.5l-5.491 22.63zm3.135-25.386c-.9 0-1.716-.265-2.44-.795-.726-.527-1.091-1.338-1.091-2.431 0-.602.125-1.166.371-1.698.246-.531.574-.989.982-1.378a4.822 4.822 0 011.417-.926 4.342 4.342 0 011.719-.342 4.04 4.04 0 012.443.794c.726.533 1.093 1.345 1.093 2.432 0 .604-.13 1.17-.374 1.701a4.475 4.475 0 01-.978 1.378c-.409.386-.88.693-1.416.923a4.315 4.315 0 01-1.726.342zm7.007 3.786c.49-.141 1.037-.311 1.632-.496a21.856 21.856 0 012.009-.512c.737-.16 1.569-.29 2.483-.39a28.304 28.304 0 013.115-.153c3.403 0 5.749.979 7.045 2.929 1.294 1.95 1.518 4.619.678 8.002l-2.968 12.218h-6.496l2.877-11.961a25.53 25.53 0 00.415-2.175c.103-.699.097-1.315-.023-1.848a2.21 2.21 0 00-.805-1.293c-.425-.329-1.069-.494-1.941-.494-.842 0-1.698.09-2.571.262l-4.23 17.509h-6.498l5.278-21.598z" fill="#979797"/></svg>