<svg xmlns="http://www.w3.org/2000/svg" xmlns:xlink="http://www.w3.org/1999/xlink" version="1.1" id="Слой_1" x="0px" y="0px" style="enable-background:new 0 0 1000 1000;" xml:space="preserve" viewBox="236.4 418.42 437.51 110.38">
<style type="text/css">
	.st0{fill:#317FE0;}
	.st1{fill:#FFFFFF;}
	.st2{font-family:'Mark-Medium';}
	.st3{font-size:93.2245px;}
</style>
<g>
	<g>
		<path class="st0" d="M253.3,484.3h-16.9v44.5h44.8V513h-27.9V484.3z M236.5,423.1v41.6h16.9v-25.8h27.9v-15.8H236.5z M351.8,484.3    H329c2.1,0.6,3.8,1.5,5.2,2.6c3,2.5,4.5,6.4,4.5,11.7c0,5.1-1.7,8.8-5.1,11c-3.4,2.3-8.7,3.4-15.9,3.4h-16.7v15.8h16.6    c12.8,0,22.5-2.3,28.9-7c6.4-4.7,9.6-11.6,9.6-20.7C356,494.3,354.6,488.8,351.8,484.3z M331.1,442.7c2.8,2.6,4.2,6,4.2,10.3    c0,4-1.5,7.5-4.6,10.3c-0.6,0.5-1.2,1-1.8,1.4h19.8c2-3.6,3-7.8,3-12.7c0-4.4-0.8-8.4-2.3-11.9c-1.5-3.6-3.6-6.6-6.5-9.1    c-2.8-2.5-6.3-4.5-10.4-5.8c-4.1-1.4-8.8-2.1-14-2.1h-17.7v15.8h18.7C324.5,438.8,328.3,440.1,331.1,442.7z"/>
	</g>
</g>
<text transform="matrix(1 0 0 1 378.2826 501.4168)" class="st1 st2 st3">Bitzaim</text>
<g>
	<rect x="286.1" y="451.6" class="st0" width="11.6" height="45.3"/>
	
		<rect x="286.1" y="451.6" transform="matrix(4.502005e-11 -1 1 4.502005e-11 -182.364 766.2333)" class="st0" width="11.6" height="45.3"/>
</g>
</svg>