<svg width="218" height="30" fill="none" xmlns="http://www.w3.org/2000/svg"><path fill-rule="evenodd" clip-rule="evenodd" d="M0 0h25.876a8.85 8.85 0 014.843 1.422 8.891 8.891 0 013.287 3.843 8.924 8.924 0 01-1.506 9.59 8.945 8.945 0 011.5 9.592 8.912 8.912 0 01-3.282 3.846 8.87 8.87 0 01-4.841 1.433H0V0zm5.927 5.946v5.935h19.949a2.96 2.96 0 001.986-.926 2.978 2.978 0 000-4.083 2.96 2.96 0 00-1.986-.926H5.926zm0 11.88v5.946h19.949a2.977 2.977 0 002.09-.876 3 3 0 00.873-2.097 2.988 2.988 0 00-.87-2.099 2.968 2.968 0 00-2.093-.873H5.926zM38.627 0h5.917v29.727h-5.916V0zM87.31 5.946V0h32.683a2.97 2.97 0 012.89 3.564 2.97 2.97 0 01-.816 1.518L108.14 19.054l-4.187-4.2 8.89-8.908H87.311z" fill="#6691FF"/><path fill-rule="evenodd" clip-rule="evenodd" d="M120.604 23.772v5.955H87.942a2.957 2.957 0 01-2.737-1.842 2.982 2.982 0 01.653-3.24l13.927-13.972 4.187 4.2-8.88 8.918 25.512-.019zM83.248 0v5.946H68.91v23.781h-5.926V5.945H48.75V0h34.498zm71.606 23.974h-20.829l-3.823 5.753h-7.084L142.848 0h3.164a5172.016 5172.016 0 0019.73 29.727h-7.064l-3.824-5.753zm-16.862-5.936h12.914l-6.471-9.724-6.443 9.724z" fill="#6691FF"/><path d="M174.067 0h-5.926v29.708h5.926V0z" fill="#6691FF"/><path fill-rule="evenodd" clip-rule="evenodd" d="M178.637 0h4.186l15.495 15.544L213.813 0H218v29.708h-5.927V10.146l-13.755 13.799-13.765-13.8v19.563h-5.916V0z" fill="#6691FF"/></svg>