<svg width="241" height="70" fill="none" xmlns="http://www.w3.org/2000/svg"><path d="M103.391 41.614c-1.049 0-1.9-.854-1.9-1.907 0-7.365-5.965-13.356-13.298-13.356H69.829v8.268c0 1.679-2.01 2.528-3.211 1.379L52.686 22.642a1.91 1.91 0 010-2.757L66.618 6.529c1.205-1.155 3.211-.295 3.211 1.379v8.268H85.66c10.823 0 19.63 8.845 19.63 19.715v3.816a1.904 1.904 0 01-1.899 1.907z" fill="#F96F34"/><path d="M79.961 60.058V51.79h-15.83c-10.824 0-19.631-8.845-19.631-19.715v-3.816c0-1.053.851-1.908 1.9-1.908 1.048 0 1.9.855 1.9 1.908 0 7.365 5.964 13.355 13.297 13.355h18.364v-8.267c0-1.672 2.004-2.539 3.212-1.379l13.93 13.356a1.909 1.909 0 010 2.757l-13.93 13.355c-1.208 1.155-3.212.296-3.212-1.378z" fill="#F96F34"/><path d="M118.032 40.737l-7.028-24.562h5.673l4.065 17.066h.204l4.486-17.066h4.857l4.473 17.102h.216l4.066-17.102h5.672l-7.028 24.562h-5.061l-4.677-16.059h-.192l-4.665 16.059h-5.061zm34.657-24.562v24.562h-5.193V16.175h5.193zm4.272 24.562V16.175h9.691c1.855 0 3.438.332 4.749.996 1.319.655 2.323 1.587 3.01 2.794.696 1.2 1.043 2.61 1.043 4.234 0 1.63-.351 3.034-1.055 4.21-.703 1.167-1.723 2.062-3.058 2.686-1.327.623-2.934.935-4.821.935h-6.489v-4.174h5.649c.992 0 1.815-.135 2.471-.407.655-.272 1.143-.68 1.463-1.224.328-.543.492-1.219.492-2.026 0-.816-.164-1.504-.492-2.063-.32-.56-.812-.984-1.475-1.271-.656-.296-1.483-.444-2.483-.444h-3.502v20.316h-5.193zm13.265-11.178l6.104 11.178h-5.733l-5.972-11.178h5.601zm8.898 11.178V16.175h16.551v4.282h-11.358v5.852h10.506v4.282h-10.506v5.864h11.406v4.282h-16.599zm-66.377 7.855v-1.276h7.604v1.276h-3.066v8.549h-1.477v-8.549h-3.061zm11.31 8.549v-9.825h3.502c.761 0 1.393.131 1.895.394.505.262.883.625 1.132 1.089.25.46.374.993.374 1.597 0 .601-.126 1.13-.379 1.588-.249.454-.626.807-1.132 1.06-.502.253-1.134.38-1.895.38h-2.653v-1.277h2.519c.48 0 .87-.069 1.171-.206.303-.138.526-.338.666-.6.141-.262.211-.577.211-.945 0-.37-.072-.692-.215-.964a1.395 1.395 0 00-.667-.624c-.301-.147-.696-.22-1.185-.22h-1.862v8.553h-1.482zm4.85-4.433l2.428 4.433h-1.689l-2.38-4.433h1.641zm6.713 4.433h-1.573l3.535-9.825h1.713l3.536 9.825h-1.574l-2.777-8.04h-.077l-2.783 8.04zm.264-3.847h5.104v1.247h-5.104v-1.247zm18.321-5.978v9.825h-1.362l-4.994-7.205h-.091v7.205h-1.482v-9.825h1.372l4.998 7.215h.092v-7.215h1.467zm9.548 2.581a1.402 1.402 0 00-.634-1.055c-.371-.253-.837-.38-1.4-.38-.403 0-.752.065-1.046.193a1.61 1.61 0 00-.686.518 1.22 1.22 0 00-.24.743c0 .234.054.435.163.605.112.17.258.312.437.427.182.112.377.206.585.283.208.073.408.134.6.182l.959.25c.313.076.635.18.964.311.33.132.635.304.917.519.281.214.508.48.681.796.176.316.264.695.264 1.137a2.61 2.61 0 01-.432 1.482c-.285.432-.699.773-1.243 1.022-.54.25-1.194.374-1.962.374-.735 0-1.372-.117-1.909-.35-.537-.233-.958-.565-1.262-.993-.304-.432-.471-.944-.503-1.535h1.487c.029.355.144.65.345.887.205.234.465.408.782.523.32.112.67.168 1.051.168.419 0 .791-.066 1.117-.197.33-.134.589-.32.778-.556.188-.24.283-.52.283-.84 0-.29-.084-.529-.25-.714a1.837 1.837 0 00-.667-.46 6.496 6.496 0 00-.945-.322l-1.161-.317c-.786-.214-1.41-.53-1.871-.945-.457-.416-.686-.966-.686-1.65 0-.566.154-1.06.461-1.483.307-.422.723-.75 1.247-.983.525-.237 1.116-.355 1.775-.355.665 0 1.252.117 1.761.35.512.234.914.555 1.209.964.294.407.447.873.46 1.401h-1.429zm5.361 7.244v-9.825h6.093v1.276h-4.61v2.994h4.173v1.271h-4.173v4.284h-1.483zm9.942 0v-9.825h6.16v1.276h-4.678v2.994h4.356v1.271h-4.356v3.008h4.735v1.276h-6.217zm10.166 0v-9.825h3.502c.761 0 1.393.131 1.895.394.505.262.883.625 1.132 1.089.25.46.374.993.374 1.597 0 .601-.126 1.13-.379 1.588-.249.454-.627.807-1.132 1.06-.502.253-1.134.38-1.895.38h-2.653v-1.277h2.519c.48 0 .87-.069 1.17-.206.304-.138.527-.338.667-.6.141-.262.211-.577.211-.945 0-.37-.072-.692-.216-.964a1.393 1.393 0 00-.666-.624c-.301-.147-.696-.22-1.185-.22h-1.862v8.553h-1.482zm4.85-4.433l2.427 4.433h-1.688l-2.38-4.433h1.641z" fill="#fff"/></svg>