<svg width="166" height="32" fill="none" xmlns="http://www.w3.org/2000/svg"><path d="M0 31.997l2.125-11.93c.628-3.474 2.077-6.156 4.345-8.045 2.268-1.89 5.299-2.835 9.094-2.835h6.466l-1.238 6.947h-6.291c-2.65 0-4.204 1.295-4.665 3.886L7.702 31.997H0zm31.79 0a13.152 13.152 0 01-4.796-.828 9.231 9.231 0 01-3.508-2.33 8.31 8.31 0 01-1.952-3.612 10.788 10.788 0 01-.095-4.661 13.043 13.043 0 011.743-4.614 13.57 13.57 0 013.23-3.61 14.683 14.683 0 014.341-2.332 15.601 15.601 0 015.087-.828h5.856a9.112 9.112 0 013.366.552 5.505 5.505 0 012.203 1.507c.557.662.925 1.46 1.065 2.31a8.28 8.28 0 01-.039 2.947c-.36 2.011-1.215 3.52-2.563 4.526-1.348 1.006-3.362 1.509-6.043 1.507h-8.21l.742-4.159h6.604c1.203 0 1.899-.534 2.089-1.6.2-1.127-.285-1.69-1.456-1.69h-4.71a5.196 5.196 0 00-3.625 1.416c-1.029.944-1.698 2.284-2.008 4.021-.31 1.737-.112 3.04.596 3.908.707.87 1.754 1.304 3.14 1.303h12.55l-1.116 6.264-12.49.003zm17.366 0l4.21-23.632c.476-2.683 1.553-4.747 3.23-6.193C58.273.726 60.49.002 63.249 0h8.698l-1.076 6.033h-6.665a3.214 3.214 0 00-2.209.731c-.557.488-.93 1.296-1.115 2.423h9.56l-1.116 6.31H59.75l-2.94 16.5h-7.654zm20.136 0l4.211-23.632c.478-2.683 1.555-4.747 3.23-6.193C78.407.726 80.623.002 83.38 0h8.68l-1.067 6.033h-6.651a3.214 3.214 0 00-2.209.731c-.558.488-.93 1.296-1.115 2.423h9.56l-1.116 6.31h-9.576l-2.94 16.5h-7.655zm31.406 0a13.132 13.132 0 01-4.793-.828 9.243 9.243 0 01-3.511-2.33 8.339 8.339 0 01-1.953-3.612 10.835 10.835 0 01-.089-4.658 13.032 13.032 0 011.746-4.617 13.568 13.568 0 013.23-3.61 14.715 14.715 0 014.341-2.332 15.617 15.617 0 015.089-.828h5.857a9.105 9.105 0 013.366.552 5.51 5.51 0 012.203 1.507c.557.662.925 1.46 1.065 2.31a8.29 8.29 0 01-.039 2.947c-.357 2.011-1.211 3.52-2.56 4.526-1.35 1.006-3.364 1.509-6.043 1.507h-8.216l.742-4.159h6.604c1.201 0 1.896-.534 2.086-1.6.2-1.127-.284-1.69-1.453-1.69h-4.713a5.19 5.19 0 00-3.625 1.416c-1.032.944-1.702 2.284-2.01 4.021-.31 1.737-.11 3.04.596 3.908.708.87 1.755 1.304 3.14 1.303h12.563l-1.116 6.264-12.507.003zm17.136 0l2.125-11.93c.619-3.474 2.068-6.156 4.345-8.045 2.277-1.89 5.309-2.835 9.094-2.835h6.453l-1.238 6.947h-6.28c-2.65 0-4.205 1.295-4.666 3.886l-2.133 11.977h-7.7zm19.998 0l1.115-6.265h16.258c1.08 0 1.706-.486 1.877-1.46.171-.973-.284-1.446-1.364-1.418h-9.066a8.066 8.066 0 01-3.037-.524 5.528 5.528 0 01-2.097-1.441 4.84 4.84 0 01-1.093-2.172 6.836 6.836 0 01-.022-2.718 7.955 7.955 0 011.054-2.813 7.888 7.888 0 011.952-2.147 9.008 9.008 0 012.599-1.38 9.47 9.47 0 013.043-.48H166l-1.115 6.262h-15.528c-1.044 0-1.652.472-1.823 1.416-.168.946.278 1.418 1.319 1.418h9.236c2.372 0 4.091.644 5.156 1.932 1.065 1.288 1.421 2.918 1.068 4.89a8.065 8.065 0 01-1.063 2.857 8.374 8.374 0 01-4.54 3.566 9.657 9.657 0 01-3.067.48l-17.811-.003z" fill="url(#paint0_linear_167_772)"/><defs><linearGradient id="paint0_linear_167_772" x1="2.79" y1="15.998" x2="160.651" y2="44.711" gradientUnits="userSpaceOnUse"><stop stop-color="#DF2AC5"/><stop offset=".74" stop-color="#6925A7"/></linearGradient></defs></svg>