<svg width="241" height="70" fill="none" xmlns="http://www.w3.org/2000/svg"><path d="M207.135 21.432c-2.348-1.615-5.868-2.432-10.49-2.432h-12.111l-4.504 24.746h-15.873l1.021-5.615h9.562l1.135-6.304h-9.556l1.021-5.59h9.85L178.498 19H158.5l-4.278 23.472h-7.335L151.191 19h-10.454l-4.272 23.472h-7.153L133.622 19h-10.445l-4.513 24.746h-15.988l1.013-5.615h9.597l1.135-6.268h-9.588l1.006-5.612h9.976L117.106 19h-62.32l-3.538 19.597L44.183 19H33.327L27.5 51h10.357l3.521-20.147L48.235 51h37.133l4.513-24.75h5.806L91.17 51h97.675l2.831-15.624L196.258 51h10.363l-4.747-12.768 1.083-.229c2.391-.516 4.257-1.633 5.557-3.301 1.299-1.67 1.957-3.86 1.957-6.453.008-3.034-1.083-5.261-3.336-6.817zM76.352 43.746H60.508l1.024-5.615h9.947l1.13-6.325h-9.865l.95-5.555h15.844l-3.186 17.495zm122.239-10.79c-1.042.736-2.553 1.095-4.619 1.095h-2.053l1.569-8.587h1.508c1.717 0 2.967.28 3.829.85.675.442 1.467 1.324 1.467 2.992.024 2.022-.915 3.103-1.701 3.65zm16.562 15.977l-.255-5.048 2.204-.115a2.983 2.983 0 011.018.083c.241.078.448.237.587.451.15.221.235.48.246.748a1.29 1.29 0 01-.293.92 1.736 1.736 0 01-1.033.535c.146.057.283.134.408.229.222.188.419.405.586.644l.931 1.325-.822.044-.71-1.015a8.019 8.019 0 00-.511-.669 1.531 1.531 0 00-.349-.32 1 1 0 00-.308-.119 2.312 2.312 0 00-.399-.012l-.763.039.115 2.236-.652.044zm.517-2.844l1.414-.075a2.08 2.08 0 00.698-.13.725.725 0 00.37-.324.84.84 0 00.112-.457.76.76 0 00-.294-.573 1.162 1.162 0 00-.818-.19l-1.57.08.088 1.669z" fill="#518113"/><path d="M216.612 41.6a4.628 4.628 0 00-3.21 1.547 4.738 4.738 0 00-.747 5.17 4.7 4.7 0 001.083 1.471 4.602 4.602 0 005.11.756 4.64 4.64 0 001.454-1.096 4.726 4.726 0 001.192-3.392 4.735 4.735 0 00-1.53-3.25 4.621 4.621 0 00-3.352-1.207zm-3.615 4.895a3.955 3.955 0 01.193-1.53 3.872 3.872 0 011.981-2.267 3.818 3.818 0 014.29.646 3.91 3.91 0 011.241 2.753v.2a3.929 3.929 0 01-1.101 2.715 3.837 3.837 0 01-2.659 1.172 3.834 3.834 0 01-2.715-1.033 3.925 3.925 0 01-1.236-2.656h.006z" fill="#518113"/></svg>