<svg width="241" height="70" fill="none" xmlns="http://www.w3.org/2000/svg"><g clip-path="url(#clip0_117_707)"><path d="M226.087 20.483c.669-.088 1.349-.073 2.024-.074.619.01 1.287.072 1.801.455.614.493.811 1.418.456 2.119-.226.442-.698.677-1.133.868-1.392.469-2.883.2-4.278-.105 1.083.087 2.178.187 3.262.055.494-.056 1.011-.279 1.255-.735.261-.492.252-1.11.04-1.616-.3-.675-1.19-.874-1.841-.686-.097.953-.013 1.925-.041 2.886-.258.004-.514.004-.767 0-.023-.87.045-1.743-.046-2.608-.09-.362-.557-.271-.831-.372l.099-.187zm4.824-.006c.5.004 1.003.035 1.505-.013.032.643.354 1.215.621 1.786.539 1.05 1.045 2.116 1.58 3.167.555-.971.996-2.003 1.514-2.994.288-.642.684-1.252.805-1.956a13.51 13.51 0 001.538.003l.013.204c-.293.055-.734.02-.823.384-.092.527-.034 1.068-.047 1.601.032 1.085.059 2.17.121 3.255-.003.184.103.39.303.42.193.061.538-.029.465.29-.769-.061-1.54-.033-2.308-.015l-.04-.209c.273-.038.758-.005.758-.4.018-1.435-.013-2.872-.018-4.308-.782 1.625-1.659 3.203-2.399 4.847-.027.116-.094.162-.196.136-.711-1.696-1.569-3.327-2.294-5.017-.074 1.354-.155 2.707-.153 4.064.009.223.006.582.302.617.175.063.627-.045.476.278a16.865 16.865 0 00-2.016-.002l-.053-.21c.266-.06.68-.042.76-.38.165-.662.162-1.351.208-2.028.033-.962.145-1.925.103-2.887-.045-.392-.523-.366-.81-.453l.085-.18zm-4.047 3.854c.254.022.51.035.769.037.024.575-.061 1.158.052 1.726.105.368.556.292.849.375l-.002.22a22.199 22.199 0 00-2.485 0c-.095-.304.244-.246.433-.31.189-.024.316-.203.332-.385.065-.55.034-1.109.052-1.663z" fill="#fff"/><path d="M232.028 15h.672c2.544.11 4.997 1.464 6.407 3.583.838 1.228 1.304 2.688 1.393 4.167v.681a8.235 8.235 0 01-1.398 4.238 8.156 8.156 0 01-9.366 3.146c-2.486-.82-4.498-2.913-5.211-5.425a8.111 8.111 0 013.549-9.18 8.3 8.3 0 013.954-1.21zm-5.942 5.483l-.099.187c.274.1.741.01.832.372.09.865.023 1.739.045 2.608.253.004.509.004.767 0 .029-.961-.056-1.934.041-2.886.651-.188 1.541.01 1.841.685.213.508.221 1.125-.04 1.617-.244.456-.761.68-1.255.735-1.084.132-2.179.032-3.262-.055 1.395.305 2.886.574 4.278.105.435-.19.907-.426 1.133-.868.355-.7.158-1.626-.456-2.12-.514-.382-1.182-.443-1.801-.454-.675.001-1.355-.014-2.024.074zm4.824-.006l-.084.18c.286.087.764.061.809.453.042.962-.07 1.925-.103 2.887-.046.677-.043 1.366-.208 2.028-.08.338-.494.32-.759.38l.052.21a16.95 16.95 0 012.016.002c.151-.323-.301-.215-.476-.278-.295-.034-.293-.394-.302-.617-.002-1.357.079-2.71.153-4.064.725 1.69 1.583 3.321 2.294 5.017.103.026.169-.02.197-.136.739-1.644 1.616-3.222 2.398-4.847.005 1.436.036 2.873.018 4.308 0 .395-.485.362-.758.4l.04.209c.768-.018 1.539-.046 2.308.014.074-.318-.272-.228-.465-.29-.2-.03-.306-.235-.303-.419-.062-1.084-.089-2.17-.121-3.255.013-.533-.044-1.074.047-1.601.089-.364.531-.33.823-.384l-.013-.204c-.514.021-1.027.034-1.538-.003-.121.704-.516 1.314-.804 1.956-.519.991-.959 2.023-1.515 2.994-.535-1.052-1.041-2.118-1.579-3.168-.268-.57-.59-1.142-.622-1.785-.502.048-1.005.017-1.505.013zm-4.047 3.854c-.017.554.013 1.112-.052 1.663-.015.182-.143.361-.332.384-.188.065-.528.007-.433.31a22.199 22.199 0 012.485.001l.002-.22c-.293-.083-.744-.007-.848-.375-.114-.568-.029-1.151-.053-1.726a10.256 10.256 0 01-.769-.037zm-167.37-6.62c.93-.367 1.933-.524 2.93-.549 1.096.009 2.245.253 3.119.948.567.462.973 1.309.577 2.002-.308.76-1.321 1.04-2.02.657-.325-.166-.517-.49-.772-.738-.664-.649-1.474-1.252-2.44-1.295-1.398-.172-2.638.904-3.121 2.14-.57 1.684-.825 3.461-.875 5.234-.03 1.018-.017 2.036-.02 3.054.01.222-.008.455.075.666.127.186.385.126.578.132 1.537-.026 3.075.004 4.612-.015.301.35.207.843.103 1.252-.098.227-.325.449-.59.426-1.472.002-2.943-.006-4.413 0-.354.02-.37.424-.363.689-.005 2.938 0 5.875-.002 8.813.01.8-.03 1.604.085 2.398.075.361.177.82.57.96.724.29 1.522.201 2.279.321.336.252.117.727-.051 1.02-1.064-.06-2.124-.194-3.191-.17-1.057.003-2.113-.002-3.169.003-.64.034-1.278.11-1.916.166-.237-.272-.358-.743-.052-1.01.545-.123 1.128-.079 1.654-.292a1.02 1.02 0 00.613-.695 6.48 6.48 0 00.178-1.364c-.065-3.06-.016-6.123-.032-9.184-.015-.39.037-.777.03-1.165.007-.259-.204-.499-.471-.494-.572-.013-1.146.024-1.718-.005-.23-.171-.201-.496-.135-.74.545-.26 1.08-.541 1.624-.803.2-.101.424-.199.545-.399.138-.208.125-.466.13-.704a19.65 19.65 0 01.295-3.145c.273-1.86.822-3.73 1.931-5.273.836-1.249 2.024-2.272 3.423-2.84zM5.636 19.48c2.79-.267 5.6-.28 8.402-.266 2.203.04 4.48.205 6.49 1.189 1.409.613 2.453 1.838 3.138 3.18.678 1.394.925 3.006.63 4.532-.234 1.666-1.152 3.288-2.623 4.16-.786.515-1.596 1.002-2.457 1.383a15.853 15.853 0 01-3.744.926 28.07 28.07 0 01-6.634.144C6.044 34.463 3.3 33.852.55 33.31c3.013.294 6.037.505 9.066.532 2.055.004 4.135-.032 6.148-.49 1.494-.332 2.936-1.125 3.814-2.405.875-1.23 1.188-2.777 1.117-4.264-.01-1.696-.517-3.489-1.798-4.67-1.276-1.175-3.075-1.555-4.764-1.562-.513.016-1.039-.032-1.539.096-.382.099-.5.519-.518.864.03 3.835.006 7.672.014 11.508a32.876 32.876 0 01-3.25-.001c-.002-2.368 0-4.737-.002-7.105-.005-1.284.019-2.577-.164-3.85-.081-.612-.6-1.08-1.19-1.205-.647-.137-1.31-.167-1.965-.251-.302-.272-.29-.875.117-1.028zm112.662-.26c2.172.139 4.356.14 6.53-.01-.082 1.777.673 3.431 1.364 5.025.74 1.746 1.646 3.415 2.482 5.117l2.753 5.488c.913 1.927 1.793 3.872 2.812 5.745.928-1.345 1.606-2.844 2.308-4.314 1.822-3.863 3.823-7.64 5.651-11.501.829-1.787 1.85-3.56 2.025-5.56 1.304.1 2.613.115 3.921.11.893.017 1.783-.087 2.676-.1.121.306.202.66.034.964-.813.032-1.634.117-2.405.388-.62.2-.997.825-1.109 1.437-.158.909-.142 1.835-.143 2.754.002 1.5-.004 3 .003 4.499.064 2.202.175 4.401.229 6.603.048 1.689.086 3.377.175 5.064.046.823.023 1.656.18 2.468.136.621.698 1.059 1.297 1.202.596.139 1.214.127 1.821.198.146.314.157.741-.092 1.006-.951-.002-1.899-.15-2.85-.147-1.409.004-2.817-.003-4.225.004-.861.039-1.722.114-2.582.16-.204-.296-.275-.693-.111-1.024.699-.08 1.417-.07 2.098-.263.478-.134.887-.52.982-1.015.202-1.105.072-2.232.09-3.347-.039-5.205-.059-10.41-.11-15.616-.911 1.336-1.575 2.818-2.261 4.274-1.637 3.648-3.499 7.187-5.351 10.728-.816 1.524-1.456 3.133-2.213 4.686-.25.53-.464 1.074-.698 1.61-.151.343-.757.302-.831-.072-.52-1.71-1.327-3.31-2.099-4.915-1.477-3.173-2.986-6.332-4.469-9.503-.828-1.757-1.647-3.518-2.371-5.322-.271-.527-.429-1.128-.805-1.591-.092 1.379-.126 2.763-.206 4.144-.302 4.33-.405 8.672-.477 13.01-.017.737.107 1.47.309 2.175.131.418.511.703.927.803.691.168 1.41.14 2.114.215.236.29.29.808-.079 1.014-.898-.036-1.793-.17-2.693-.154-1.246.004-2.491-.006-3.737.004-.702.042-1.402.112-2.104.16-.166-.248-.265-.57-.168-.862.06-.19.282-.178.443-.203.727-.074 1.483-.176 2.118-.563.442-.3.626-.832.721-1.333.231-1.136.273-2.297.389-3.448.456-5.447.757-10.908.932-16.372-.019-.562-.038-1.148-.279-1.666a1.415 1.415 0 00-.871-.754c-.709-.221-1.438-.413-2.185-.436-.173-.3-.148-.742.14-.963zm-21.223 7.94c.277.025.614-.01.824.215.069.756-.039 1.521.058 2.276-.002.295.346.277.558.297 1.527.01 3.056.001 4.584.004.459.426.374 1.215.001 1.67-1.622.002-3.243.008-4.863-.007-.202-.004-.297.195-.35.356-.088.3-.076.618-.078.928.004 2.422-.002 4.845.003 7.267 0 .71.064 1.422.227 2.113.091.5.28.997.631 1.375.64.728 1.703.95 2.632.831.485-.197.982-.383 1.404-.7.197-.182.434.039.494.24.183.28-.119.525-.292.716-1.096 1.018-2.613 1.53-4.101 1.5-.81-.059-1.649-.165-2.368-.566-.822-.498-1.333-1.408-1.48-2.34-.132-.664-.065-1.343-.074-2.014-.005-2.934.01-5.868-.007-8.802-.023-.316.007-.798-.4-.874-.517-.084-1.052.04-1.569-.046-.244-.224-.19-.556-.089-.834 1.106-.314 2.244-.794 2.996-1.695.466-.604.912-1.23 1.259-1.91zm-53.781 1.69c.145-.102.328.034.347.19.087.917-.084 1.853.096 2.759.921-.726 1.822-1.5 2.87-2.04.69-.29 1.493-.547 2.225-.26.406.153.81.407 1.016.8.278.59.118 1.29-.205 1.827-.303.52-.96.708-1.53.686-.359.013-.635-.25-.935-.404-.601-.375-1.332-.635-2.044-.459-.511.163-.903.59-1.1 1.08-.364.831-.335 1.759-.373 2.647.004 2.356-.018 4.713.015 7.07.024.599.04 1.365.64 1.698.746.37 1.616.22 2.413.372.259.271.144.73-.053 1.007-.804-.047-1.606-.106-2.409-.162-1.18-.012-2.36 0-3.54-.005-.77-.015-1.531.102-2.296.164-.14-.297-.357-.73-.06-1.002.565-.133 1.193-.091 1.697-.424.345-.19.493-.586.544-.955.12-.926 0-1.86.014-2.79.002-2.072 0-4.145 0-6.217.013-.625.128-1.29-.131-1.882-.267-.568-.97-.682-1.328-1.163-.084-.173-.088-.417.053-.561 1.37-.632 2.765-1.22 4.074-1.976zm125.961 1.94c1.384-.571 2.802-1.117 4.048-1.96.205-.06.418.127.415.332a18.284 18.284 0 00-.03 1.916c-.002.205.255.415.444.282 1.234-.735 2.52-1.43 3.927-1.77.737-.163 1.5-.292 2.257-.182.919.104 1.871.373 2.555 1.026 1.11.996 1.555 2.541 1.527 3.993v5.84c.009.991-.027 1.984.046 2.972.041.387.121.813.417 1.091.557.422 1.297.33 1.944.482.327.265.177.741-.064 1.012-.832-.066-1.661-.19-2.496-.167-1.672.018-3.351-.079-5.009.172-.259-.263-.343-.691-.124-1.003.349-.115.731-.102 1.09-.192.425-.104.925-.282 1.042-.757.25-.827.143-1.709.176-2.56l.001-5.356c.012-.92.011-1.878-.375-2.734a2.966 2.966 0 00-1.864-1.683c-1.522-.465-3.316-.289-4.571.743-.713.584-.936 1.551-.93 2.433-.004 2.582-.011 5.165.005 7.747.029.61-.014 1.303.394 1.81.511.428 1.218.38 1.832.533.245.302.156.751-.102 1.018-1.436-.22-2.888-.17-4.335-.171-1.031-.038-2.057.061-3.081.17-.213-.27-.292-.69-.114-.995.598-.188 1.316-.06 1.852-.454.238-.16.355-.438.406-.71.205-1.125.091-2.27.109-3.404-.001-2.264.001-4.527-.002-6.79-.014-.377-.008-.8-.249-1.113-.347-.37-.762-.665-1.188-.935-.119-.185-.12-.48.047-.636zm-141.938-.07a7.993 7.993 0 014.38-1.356c1.01.051 2.038.232 2.95.688.87.503 1.637 1.21 2.152 2.076.443.743.586 1.633.504 2.486-.032.214-.072.434-.177.626-.184.125-.416.138-.629.17-.607.063-1.218.04-1.827.048-2.623-.003-5.246.01-7.868-.009-.284-.008-.462.256-.475.514-.053 1.652.238 3.341 1.012 4.816a6.188 6.188 0 002.863 2.692c1.012.452 2.14.544 3.235.514 1.302-.11 2.467-.91 3.201-1.966.175.012.36.001.522.079.11.12.158.28.225.425-.547.934-1.212 1.842-2.133 2.44-1.23.771-2.664 1.277-4.126 1.286-1.593-.055-3.254-.378-4.548-1.36-1.317-.933-2.18-2.384-2.618-3.912-.467-1.716-.43-3.549-.017-5.271a8.597 8.597 0 013.373-4.986zm1.535.58c-1.029.63-2.016 1.597-2.157 2.85.189.063.388.076.587.07 1.793-.015 3.59.035 5.38-.093.4-.036.805-.052 1.195-.155.162-.037.272-.181.32-.334.203-.803.04-1.752-.627-2.3-1.342-1.02-3.319-.952-4.698-.039zm36.168.078c1.433-1.28 3.345-2.032 5.274-2.01 1.246.08 2.564.315 3.563 1.117.96.73 1.788 1.746 1.97 2.968.07.566.102 1.164-.102 1.709-.053.147-.237.164-.365.2-.69.126-1.393.082-2.09.096-2.624-.006-5.25.015-7.873-.013-.155.01-.33.054-.41.2-.173.297-.109.655-.103.982.028 1.538.387 3.093 1.168 4.43.902 1.5 2.478 2.612 4.231 2.837.974.115 2.02.225 2.928-.229.81-.323 1.47-.931 1.966-1.634.2.005.467-.052.6.138.07.142.22.316.092.468-.594 1.027-1.38 1.992-2.444 2.56-1.325.724-2.853 1.187-4.375 1.016-1.444-.114-2.893-.547-4.052-1.434-1.315-.972-2.141-2.477-2.543-4.035-.425-1.767-.35-3.645.14-5.392.438-1.504 1.244-2.926 2.425-3.974zm1.833.295c-.781.619-1.514 1.453-1.6 2.488.203.05.413.064.622.06 2.008-.019 4.023.049 6.026-.15.292-.046.694-.046.812-.381.294-.688.047-1.499-.351-2.094-.757-.823-1.963-1.086-3.043-.973-.915.067-1.746.512-2.466 1.05zm14.471-.981c1.443-.872 3.142-1.205 4.807-1.308a9.142 9.142 0 014.174.697c.369.275.547.736.604 1.18.08.573-.038 1.21-.44 1.646-.169.19-.447.195-.678.167-.316-.19-.507-.52-.775-.764-1.038-.995-2.466-1.672-3.93-1.533-1.864.082-3.548 1.305-4.397 2.928-.432.916-.634 1.923-.716 2.927-.14 1.39.248 2.789.895 4.012.58 1.06 1.424 1.995 2.478 2.6 1.103.62 2.404.809 3.655.72.809-.056 1.634-.26 2.3-.74a5.604 5.604 0 001.537-1.638c.356-.034.635.25.756.559-.304.63-.66 1.243-1.135 1.76-.519.586-1.19 1.006-1.858 1.401-1.718 1.01-3.842 1.149-5.757.713-1.238-.333-2.463-.866-3.393-1.77-1.235-1.159-1.98-2.784-2.214-4.447-.3-2.008.005-4.116.956-5.919.73-1.322 1.864-2.385 3.131-3.191z" fill="#F01010"/><path d="M158.57 29.431c1.262-.173 2.553.029 3.76.413a7.344 7.344 0 013.646 2.609c1.44 1.94 1.957 4.496 1.528 6.858-.285 1.869-1.178 3.664-2.603 4.925-1.149 1.053-2.645 1.663-4.179 1.876-1.684.29-3.44.068-5.023-.562-1.568-.625-2.865-1.844-3.681-3.31-.97-1.687-1.181-3.711-.937-5.614a8.23 8.23 0 011.833-4.244c1.386-1.694 3.496-2.71 5.656-2.95zm-.295 1.24c-1.079.183-1.988.91-2.564 1.816-.623.856-.942 1.89-1.12 2.92-.201 1.23-.264 2.493-.067 3.729.236 1.45.653 2.929 1.574 4.105.446.551.961 1.078 1.616 1.378.812.381 1.742.46 2.625.34.793-.107 1.567-.465 2.103-1.066.637-.714 1.08-1.585 1.331-2.505.304-.978.47-2.003.433-3.029.061-1.898-.352-3.848-1.347-5.48-.543-.811-1.215-1.61-2.148-1.977a4.52 4.52 0 00-2.436-.23zm32.02.887c1.429-1.367 3.384-2.181 5.368-2.194.994.044 2 .214 2.907.637a5.541 5.541 0 012.49 2.693 3.9 3.9 0 01.254 2.027c-.031.262-.191.515-.446.607-.372.132-.776.11-1.162.125-2.689.011-5.379.003-8.067.005-.389.011-.815-.1-1.17.103-.217.23-.183.578-.191.87.042 1.718.402 3.499 1.419 4.921.943 1.34 2.419 2.345 4.068 2.55.949.104 1.966.21 2.859-.211.819-.333 1.467-.967 1.983-1.668.21.008.47-.026.625.158.083.127.232.3.109.45-.679 1.17-1.658 2.197-2.893 2.786-1.066.532-2.251.852-3.446.83-1.465-.064-2.975-.368-4.197-1.217-1.439-.963-2.452-2.503-2.853-4.176-.55-1.917-.451-4.002.201-5.882.473-1.264 1.154-2.477 2.142-3.414zm4.129-.884c-1.093.189-2.056.835-2.796 1.637-.474.51-.853 1.144-.904 1.85.36.094.735.048 1.105.056 1.863-.01 3.732.041 5.588-.157.308-.034.725-.08.798-.453.129-.655.071-1.401-.361-1.94-.835-.948-2.226-1.222-3.43-.994zm8.255-.821a62.7 62.7 0 007.293.002c.318.137.364.658.161.907-.581.26-1.289.203-1.835.556-.149.243-.029.546.012.807.503 1.815 1.214 3.561 1.794 5.352.51 1.462.962 2.961 1.693 4.333.555-.898.942-1.889 1.41-2.832.726-1.702 1.472-3.396 2.138-5.121.249-.695.589-1.372.676-2.112.059-.326-.27-.509-.526-.604-.554-.173-1.141-.197-1.699-.341-.226-.254-.22-.79.112-.945.8.01 1.598.11 2.4.098h2.303c.636.003 1.27-.099 1.907-.094.346.21.325.685.07.958-.644.045-1.288.23-1.783.657-.844.701-1.297 1.73-1.816 2.67-1.516 2.983-2.947 6.007-4.405 9.018-.841 1.728-1.586 3.5-2.423 5.23-.673 1.387-1.286 2.8-1.955 4.187-.351.72-.633 1.485-1.134 2.12-.443.573-1.165.95-1.897.9-.477-.005-.976-.104-1.351-.413-.837-.723-.629-2.314.412-2.741.697-.325 1.511.022 2.212-.294.503-.297.759-.845 1.062-1.319.533-.867.962-1.79 1.434-2.69a8.16 8.16 0 00.781-2.432c.074-.851-.136-1.695-.436-2.484-1.109-3-2.232-5.994-3.343-8.991-.286-.851-.565-1.726-1.079-2.47-.558-.71-1.522-.748-2.325-.961-.228-.25-.175-.785.137-.95zM8.84 35.782c1.073.172 2.164.208 3.25.162-.002 1.25.002 2.5-.002 3.751-.029 1.088-.05 2.185.14 3.261.102.657.54 1.271 1.184 1.492.785.272 1.63.236 2.446.35.191.33.141.726-.077 1.028-.969-.058-1.938-.105-2.906-.165-1.566-.009-3.133-.003-4.699-.002-.861.037-1.72.116-2.58.161-.193-.286-.313-.782.007-1.018.652-.137 1.344-.096 1.966-.364.454-.218.905-.567 1.015-1.086.19-.918.222-1.862.246-2.798.019-1.59.005-3.181.01-4.772z" fill="#F01010"/></g><defs><clipPath id="clip0_117_707"><path fill="#fff" transform="translate(.5)" d="M0 0h240v70H0z"/></clipPath></defs></svg>