<svg width="241" height="70" fill="none" xmlns="http://www.w3.org/2000/svg"><path d="M159.472 15.783l10.969-1.967V56.22h-10.969V15.783zm16.012 0v40.414h10.969v-42.38l-10.969 1.966zm-31.605 40.414h10.969V25.196h-10.969v31zM71.395 29.574c-1.394-.093-4.602-.304-4.602-3.207 0-3.512 4.625-3.512 6.345-3.512 3.044 0 6.995.913 9.807 1.756 0 0 1.58.561 2.905 1.123l.116.024v-9.6l-.163-.047c-3.323-1.17-7.18-2.295-14.362-2.295-12.363 0-16.732 7.259-16.732 13.464 0 3.582 1.534 12.011 15.687 12.995 1.208.07 4.392.258 4.392 3.278 0 2.482-2.603 3.957-6.995 3.957-4.81 0-9.459-1.24-12.294-2.412v9.905c4.23 1.124 9.017 1.686 14.618 1.686 12.084 0 17.499-6.86 17.499-13.675 0-7.726-6.042-12.737-16.221-13.44zm66.302-4.823c-10.132.328-15.268 4.917-15.268 14.025V56.22h11.062V41.984c0-5.455.697-7.797 7.134-8.008v-9.084c-1.115-.211-2.928-.14-2.928-.14zm-29.746.421c-.233.61-1.999 5.62-6.252 10.795v-22.15l-11.317 2.247v40.133h11.317v-12.41c3.277 4.964 4.904 12.41 4.904 12.41h13.548c-1.348-5.62-7.204-15.969-7.204-15.969 5.252-6.72 7.576-13.885 7.948-15.079h-12.944v.023zm41.389-2.95c2.975 0 5.415-2.435 5.415-5.432 0-2.997-2.417-5.455-5.415-5.455-2.975 0-5.392 2.435-5.392 5.455 0 2.997 2.417 5.432 5.392 5.432z" fill="url(#paint0_linear_33_1440)"/><defs><linearGradient id="paint0_linear_33_1440" x1="54.732" y1="33.997" x2="186.456" y2="33.997" gradientUnits="userSpaceOnUse"><stop stop-color="#B32585"/><stop offset="1" stop-color="#6B2D74"/></linearGradient></defs></svg>